<svg width="24" height="25" viewBox="0 0 24 25" fill="none" xmlns="http://www.w3.org/2000/svg">
<g clip-path="url(#clip0_18_93)">
<path d="M12.0436 7.96606C9.46545 7.96606 7.41101 10.0608 7.41101 12.5986C7.41101 15.1768 9.46545 17.2312 12.0436 17.2312C14.5814 17.2312 16.6761 15.1768 16.6761 12.5986C16.6761 10.0608 14.5814 7.96606 12.0436 7.96606ZM12.0436 15.6199C10.392 15.6199 9.02234 14.2905 9.02234 12.5986C9.02234 10.947 10.3517 9.61768 12.0436 9.61768C13.6952 9.61768 15.0245 10.947 15.0245 12.5986C15.0245 14.2905 13.6952 15.6199 12.0436 15.6199ZM17.9249 7.80493C17.9249 7.20068 17.4415 6.71729 16.8373 6.71729C16.233 6.71729 15.7496 7.20068 15.7496 7.80493C15.7496 8.40918 16.233 8.89258 16.8373 8.89258C17.4415 8.89258 17.9249 8.40918 17.9249 7.80493ZM20.9865 8.89258C20.9059 7.44238 20.5836 6.15332 19.5363 5.10596C18.4889 4.05859 17.1998 3.73633 15.7496 3.65576C14.2592 3.5752 9.78772 3.5752 8.29724 3.65576C6.84705 3.73633 5.59827 4.05859 4.51062 5.10596C3.46326 6.15332 3.14099 7.44238 3.06042 8.89258C2.97986 10.3831 2.97986 14.8545 3.06042 16.345C3.14099 17.7952 3.46326 19.0439 4.51062 20.1316C5.59827 21.179 6.84705 21.5012 8.29724 21.5818C9.78772 21.6624 14.2592 21.6624 15.7496 21.5818C17.1998 21.5012 18.4889 21.179 19.5363 20.1316C20.5836 19.0439 20.9059 17.7952 20.9865 16.345C21.067 14.8545 21.067 10.3831 20.9865 8.89258ZM19.0529 17.916C18.7709 18.7217 18.1263 19.3259 17.361 19.6482C16.1525 20.1316 13.3326 20.0107 12.0436 20.0107C10.7142 20.0107 7.89441 20.1316 6.7262 19.6482C5.92053 19.3259 5.31628 18.7217 4.99402 17.916C4.51062 16.7478 4.63147 13.928 4.63147 12.5986C4.63147 11.3096 4.51062 8.48975 4.99402 7.28125C5.31628 6.51587 5.92053 5.91162 6.7262 5.58936C7.89441 5.10596 10.7142 5.22681 12.0436 5.22681C13.3326 5.22681 16.1525 5.10596 17.361 5.58936C18.1263 5.87134 18.7306 6.51587 19.0529 7.28125C19.5363 8.48975 19.4154 11.3096 19.4154 12.5986C19.4154 13.928 19.5363 16.7478 19.0529 17.916Z" fill="#F5F5F5"/>
</g>
<defs>
<clipPath id="clip0_18_93">
<rect width="24" height="24" fill="white" transform="translate(0 0.595337)"/>
</clipPath>
</defs>
</svg>
